<svg xmlns="http://www.w3.org/2000/svg" width="16" height="16" viewBox="0 0 16 16"><g><g><path fill="#0f0f0f" d="M16 9.263h-.595v2.092a3.136 3.136 0 0 1-1.37 2.591l.618 1.366-.853.387-.61-1.346c-.292.09-.6.138-.921.138H3.73c-.32 0-.63-.048-.92-.138L2.2 15.7l-.855-.387.62-1.366a3.136 3.136 0 0 1-1.371-2.591V9.263H0v-2.83h1.65V2.285C1.65 1.174 2.554.27 3.665.27c1.11 0 2.014.904 2.014 2.015v.75h-.937v-.75a1.078 1.078 0 0 0-2.155 0v4.148H16zM12.83 7.37v.955h2.232V7.37zm-4.361 0v3.424h3.424V7.37zm-7.531.955H7.53V7.37H.938zm13.53 3.03V9.263H12.83v2.468H7.531V9.263H1.532v2.092c0 1.213.987 2.199 2.2 2.199h8.537c1.212 0 2.199-.987 2.199-2.2z"/></g></g></svg>