<svg xmlns="http://www.w3.org/2000/svg" width="107" height="45" viewBox="0 0 107 45"><g><g><path fill="#231f20" d="M8.689 30.07l5.883 14.655h-3.295l-1.235-3.162H4.459l-1.235 3.162H0L5.905 30.07zm-3.266 8.793h3.684L7.251 34.07z"/></g><g><path fill="#231f20" d="M19.43 30.07v11.702h5.109v2.953H16.29V30.07z"/></g><g><path fill="#231f20" d="M26.53 30.07h5.36a6.141 6.141 0 0 1 1.856.272 4.437 4.437 0 0 1 1.476.774c.41.334.74.756.964 1.235a3.88 3.88 0 0 1 .337 1.676 3.159 3.159 0 0 1-.44 1.714c-.309.489-.743.886-1.257 1.15a3.914 3.914 0 0 1 1.927 1.35 3.59 3.59 0 0 1 .674 2.193 4.26 4.26 0 0 1-.366 1.8 3.788 3.788 0 0 1-1.036 1.35 4.637 4.637 0 0 1-1.643.844 7.493 7.493 0 0 1-2.18.297H26.53zm5.045 5.84c.483.018.958-.125 1.35-.409a1.625 1.625 0 0 0 0-2.407 2.158 2.158 0 0 0-1.35-.409h-1.968v3.224zm.44 6.175c.675 0 1.212-.154 1.611-.461.4-.307.602-.761.608-1.362a1.608 1.608 0 0 0-.608-1.35c-.405-.313-.942-.47-1.611-.47h-2.408v3.642z"/></g><g><path fill="#231f20" d="M39.76 30.07h8.625v2.848H42.9v2.973h5.004v2.763H42.9v3.224h5.527v2.848H39.76z"/></g><g><path fill="#231f20" d="M50.491 40.018a7.514 7.514 0 0 0 2.44 1.506c.816.33 1.685.507 2.564.523.712 0 1.26-.136 1.644-.408a1.36 1.36 0 0 0 .575-1.181 1.087 1.087 0 0 0-.252-.732 1.974 1.974 0 0 0-.674-.493 5.906 5.906 0 0 0-.994-.337 84.929 84.929 0 0 1-1.173-.314 16.533 16.533 0 0 1-1.518-.46 5.21 5.21 0 0 1-1.382-.733 3.56 3.56 0 0 1-1.012-1.173 3.686 3.686 0 0 1-.387-1.78 4.476 4.476 0 0 1 .399-1.904 4.196 4.196 0 0 1 1.12-1.466 5.077 5.077 0 0 1 1.727-.932 7.122 7.122 0 0 1 2.194-.324c1.73 0 3.238.405 4.521 1.215v3.487a7.84 7.84 0 0 0-2.166-1.34 6.189 6.189 0 0 0-2.328-.465c-.767 0-1.33.143-1.687.429a1.35 1.35 0 0 0-.534 1.098.89.89 0 0 0 .22.607c.163.181.358.33.575.44.27.138.552.247.844.325.32.09.662.185 1.025.282.531.139 1.076.3 1.634.48a5.98 5.98 0 0 1 1.528.744c.464.318.853.732 1.14 1.215.322.579.477 1.234.451 1.895a4.838 4.838 0 0 1-.381 1.933 4.24 4.24 0 0 1-1.078 1.507 5.062 5.062 0 0 1-1.706.984 6.747 6.747 0 0 1-2.26.356c-.917 0-1.831-.109-2.722-.324a8.267 8.267 0 0 1-2.345-.932v-3.728z"/></g><g><path fill="#231f20" d="M61.837 30.07h10.885V33h-3.85v11.725H65.71V33.002h-3.88V30.07z"/></g><g><path fill="#231f20" d="M80.204 30.07l5.883 14.655H82.8l-1.235-3.162h-5.59l-1.235 3.162H71.51l5.905-14.655zm-3.266 8.793h3.683l-1.856-4.794z"/></g><g><path fill="#231f20" d="M84.868 30.07h10.886V33h-3.852v11.725H88.74V33.002h-3.88V30.07z"/></g><g><path fill="#231f20" d="M97.68 30.07h8.625v2.848h-5.485v2.973h5.004v2.763h-5.004v3.224h5.527v2.848H97.68z"/></g><g><path fill="#231f20" d="M47.664 19.88H31.29v-1.792h16.374c1.517 0 3-.45 4.26-1.294l2.85-1.907a8.773 8.773 0 0 1 9.984.187l1.892 1.369a7.6 7.6 0 0 0 4.496 1.457h3.973v1.797h-3.973a9.386 9.386 0 0 1-5.544-1.8l-1.89-1.367a6.968 6.968 0 0 0-7.93-.15l-2.85 1.908a9.448 9.448 0 0 1-5.268 1.591z"/></g><g><path fill="#231f20" d="M47.664 15.245H31.29v-1.798h16.374a7.634 7.634 0 0 0 4.258-1.292l2.852-1.909a8.773 8.773 0 0 1 9.984.19l1.893 1.371a7.62 7.62 0 0 0 4.495 1.458h3.973v1.796h-3.973a9.408 9.408 0 0 1-5.544-1.8l-1.893-1.371a6.973 6.973 0 0 0-7.93-.149l-2.856 1.9a9.426 9.426 0 0 1-5.26 1.604z"/></g><g><path fill="#231f20" d="M47.664 10.872H31.29V9.074h16.374c1.517 0 2.999-.45 4.258-1.296l2.853-1.9a8.773 8.773 0 0 1 9.983.184L66.65 7.43a7.62 7.62 0 0 0 4.496 1.458h3.973v1.797h-3.973a9.407 9.407 0 0 1-5.544-1.8L63.71 7.516a6.965 6.965 0 0 0-7.93-.15L52.93 9.271a9.426 9.426 0 0 1-5.266 1.601z"/></g><g><path fill="#231f20" d="M47.662 6.462H31.32V4.664h16.344c1.516 0 2.999-.45 4.258-1.296l2.851-1.905a8.773 8.773 0 0 1 9.983.194l1.892 1.369a7.62 7.62 0 0 0 4.496 1.457h3.992V6.28h-3.992A9.407 9.407 0 0 1 65.6 4.475l-1.891-1.368a6.963 6.963 0 0 0-7.93-.15L52.92 4.862a9.424 9.424 0 0 1-5.26 1.6z"/></g></g></svg>