<svg width="60" height="60" viewBox="0 0 60 60" fill="none" xmlns="http://www.w3.org/2000/svg">
<rect width="60" height="60" fill="#E6BD00"/>
<path fill-rule="evenodd" clip-rule="evenodd" d="M21.9893 22.3435V19.3528H29.5954V14H31.0219V19.3527H37.1068V22.3434H40.9097V41.0946V42.2147L44 44.919L43.0211 46L15.7363 22.1232L16.7153 21.0422L19.7076 23.6608V22.3435H21.9893ZM39.4835 23.7457V40.9667L37.1856 38.9558V34.0676H31.5998L29.2034 31.9705H29.5011V26.082H23.5111V26.9893L21.1341 24.9091V23.7457H23.4158V20.7549H35.6805V22.3435H32.5906V23.7457H39.4835ZM33.2022 35.4699H35.7591V37.7074L33.2022 35.4699ZM27.6009 30.5682L24.9375 28.2375V27.4843H28.0746V30.5682H27.6009ZM21.6254 32.0908H15.0002V33.5381H21.6254V32.0908ZM15 37.1562H27.5142V38.6035H15V37.1562ZM32.6671 42.2217H15V43.669H32.6671V42.2217ZM29.5482 22.3437H31.0694V23.7459H29.5482V22.3437ZM28.0271 22.3437H26.5058V23.7459H28.0271V22.3437ZM31.1175 31.9705H37.1076V26.082H31.1175V31.9705ZM32.5439 27.4843H35.6811V30.5682H32.5439V27.4843Z" fill="white"/>
</svg>
