<svg xmlns="http://www.w3.org/2000/svg" width="107" height="45" viewBox="0 0 107 45"><g><g><path fill="#fff" d="M31.324 4.667h16.343c1.517 0 3-.45 4.259-1.296l2.851-1.904a8.773 8.773 0 0 1 9.983.187l1.891 1.368a7.62 7.62 0 0 0 4.497 1.458h3.992v1.793h-3.992a9.408 9.408 0 0 1-5.544-1.795L63.712 3.11a6.963 6.963 0 0 0-7.93-.15l-2.85 1.905a9.425 9.425 0 0 1-5.266 1.599H31.324zm-.032 6.204V9.074h16.374c1.516 0 2.999-.45 4.258-1.296l2.851-1.904a8.773 8.773 0 0 1 9.985.187l1.891 1.368a7.62 7.62 0 0 0 4.497 1.458h3.973v1.797h-3.973a9.407 9.407 0 0 1-5.544-1.799l-1.892-1.368a6.965 6.965 0 0 0-7.93-.15l-2.85 1.904a9.426 9.426 0 0 1-5.266 1.6zm0 2.574h16.374a7.634 7.634 0 0 0 4.258-1.292l2.851-1.908a8.773 8.773 0 0 1 9.985.185l1.893 1.372a7.619 7.619 0 0 0 4.495 1.458h3.973v1.797h-3.973a9.408 9.408 0 0 1-5.544-1.799l-1.893-1.372a6.973 6.973 0 0 0-7.93-.148l-2.856 1.908a9.425 9.425 0 0 1-5.26 1.596H31.293zm0 6.442v-1.803h16.374c1.517 0 3-.45 4.26-1.294l2.85-1.907a8.773 8.773 0 0 1 9.984.192l1.891 1.369a7.6 7.6 0 0 0 4.497 1.457h3.973v1.797h-3.973a9.386 9.386 0 0 1-5.544-1.798l-1.89-1.367a6.967 6.967 0 0 0-7.93-.15l-2.851 1.908a9.447 9.447 0 0 1-5.267 1.596zm19.213 20.139l-.01-.01h.01zm0 0a7.513 7.513 0 0 0 2.43 1.497c.815.33 1.685.507 2.564.523.712 0 1.26-.136 1.643-.408a1.36 1.36 0 0 0 .576-1.181 1.086 1.086 0 0 0-.252-.732 1.973 1.973 0 0 0-.675-.493 5.901 5.901 0 0 0-.993-.337 86.832 86.832 0 0 1-1.173-.314 16.543 16.543 0 0 1-1.518-.46 5.215 5.215 0 0 1-1.382-.733 3.561 3.561 0 0 1-1.012-1.172 3.687 3.687 0 0 1-.387-1.78 4.477 4.477 0 0 1 .398-1.905 4.196 4.196 0 0 1 1.12-1.466 5.078 5.078 0 0 1 1.728-.932 7.122 7.122 0 0 1 2.194-.324c1.73 0 3.238.405 4.521 1.215v3.496a7.839 7.839 0 0 0-2.166-1.34 6.19 6.19 0 0 0-2.335-.46c-.767 0-1.33.143-1.687.428a1.35 1.35 0 0 0-.533 1.099.89.89 0 0 0 .219.607c.163.18.358.33.575.44.27.138.552.246.844.324.32.091.662.185 1.026.282.53.14 1.075.3 1.633.48a5.98 5.98 0 0 1 1.529.745 3.88 3.88 0 0 1 1.15 1.205c.32.578.477 1.233.45 1.894a4.839 4.839 0 0 1-.376 1.927 4.238 4.238 0 0 1-1.078 1.507 5.062 5.062 0 0 1-1.706.983 6.75 6.75 0 0 1-2.26.356c-.917 0-1.83-.108-2.722-.324a8.267 8.267 0 0 1-2.345-.931zm-18.62-9.964a6.137 6.137 0 0 1 1.857.272 4.435 4.435 0 0 1 1.476.774c.41.334.74.756.963 1.235a3.88 3.88 0 0 1 .338 1.676 3.16 3.16 0 0 1-.461 1.716c-.308.489-.742.886-1.257 1.15a3.914 3.914 0 0 1 1.927 1.35 3.59 3.59 0 0 1 .675 2.193 4.26 4.26 0 0 1-.366 1.8A3.788 3.788 0 0 1 36 43.579a4.636 4.636 0 0 1-1.644.844 7.497 7.497 0 0 1-2.166.294h-5.665V30.061zm1.43 4.888a1.625 1.625 0 0 0-.395-1.862 2.159 2.159 0 0 0-1.35-.409h-1.967v3.224h1.967c.483.02.958-.124 1.35-.408.168-.152.302-.338.394-.545zm.914 5.308a1.609 1.609 0 0 0-.607-1.35c-.405-.314-.942-.47-1.612-.47h-2.407v3.642h2.407c.675 0 1.212-.153 1.612-.46.4-.307.601-.761.607-1.362zM8.69 30.062l5.883 14.655h-3.295l-1.235-3.162H4.459l-1.235 3.162H0l5.905-14.655zm-3.266 8.794h3.684L7.251 34.06zm14.005-8.794v11.702h5.108v2.953h-8.248V30.062zm20.328 0h8.625v2.848h-5.485v2.973H47.9v2.764h-5.004v3.225h5.527v2.848h-8.667zm32.97 0v2.931h-3.85v11.724h-3.161V32.993h-3.88v-2.93zm10.072 14.655l-1.236-3.162h-5.589l-1.235 3.162h-3.23l5.906-14.655h2.789l5.883 14.655zm-4.035-10.656l-1.827 4.795h3.683zm16.994-3.999v2.931h-3.852v11.724h-3.162V32.993h-3.88v-2.93zm10.551 2.848h-5.485v2.973h5.004v2.764h-5.004v3.225h5.527v2.848h-8.667V30.062h8.625z"/></g></g></svg>