<svg xmlns="http://www.w3.org/2000/svg" width="60" height="60" viewBox="0 0 60 60"><g><g><path fill="#fff" d="M0 0h60v60H0z"/></g><g><path fill="#333" d="M21.99 22.344v-2.991h7.605V14h1.427v5.353h6.085v2.99h3.803v19.872L44 44.919 43.021 46 15.736 22.123l.98-1.08 2.992 2.618v-1.317zm10.6 1.402v-1.402h3.09v-1.59H23.416v2.992h-2.282v1.163l2.377 2.08v-.907h5.99v5.888h-.298l2.397 2.098h5.586v4.888l2.298 2.01v-17.22zm3.17 13.961V35.47h-2.558zm-7.685-7.139v-3.084h-3.137v.753l2.663 2.331zm-6.45 2.97H15v-1.447h6.625zM15 37.156h12.514v1.447H15zm17.667 6.513H15v-1.447h17.667zm-3.119-21.325h1.521v1.402h-1.52zm-1.52 1.402h-1.522v-1.402h1.521zm3.09 2.336h5.99v5.888h-5.99zm1.426 4.486h3.137v-3.084h-3.137z"/></g></g></svg>