<svg xmlns="http://www.w3.org/2000/svg" width="40" height="40" viewBox="0 0 40 40"><g><g><path fill="#fff" d="M3.081 29.946a.67.67 0 0 0 .727-.145l10.864-10.863 10.86 10.863a.666.666 0 0 0 1.138-.471v-8.667a.667.667 0 0 0-1.333 0v7.057L15.145 17.525a.691.691 0 0 0-.946 0L4.003 27.721v-7.724h3.334a.667.667 0 0 0 .666-.667v-.667h1.334v.667a.667.667 0 0 0 1.333 0v-1.333a.667.667 0 0 0-.667-.667H7.337a.667.667 0 0 0-.667.667v.666H3.337a.667.667 0 0 0-.667.667v10c0 .27.163.513.411.616z"/></g><g><path fill="#fff" d="M18.733 13.995c-.042.621-.066 1.284-.066 2.005 0 3.34.996 5.333 2.666 5.333 2.106 0 2.667-2.514 2.667-4a.667.667 0 0 0-1.333 0c0 .027-.058 2.667-1.334 2.667C20.561 20 20 18.318 20 16c0-7.773 2.728-8.658 2.814-8.683a.667.667 0 0 0-.278-1.304c-.133.027-.617.154-1.198.652 0-.115.01-.23.04-.344.093-.344.313-.631.622-.809a1.326 1.326 0 0 1 1.011-.133 1.334 1.334 0 0 1 .322 2.443A.667.667 0 0 0 24 8.975a2.67 2.67 0 0 0 .976-3.643 2.651 2.651 0 0 0-1.62-1.242 2.647 2.647 0 0 0-2.023.266 2.651 2.651 0 0 0-1.242 1.62 2.653 2.653 0 0 0 .222 1.921c-.572.93-1.106 2.317-1.404 4.378-.998-1.195-1.576-2.718-1.576-4.276A6.674 6.674 0 0 1 24 1.333 6.674 6.674 0 0 1 30.667 8a6.674 6.674 0 0 1-8.782 6.325.666.666 0 1 0-.423 1.264c.816.272 1.67.41 2.538.41 4.411 0 8-3.588 8-8C32 3.59 28.41 0 24 0s-8 3.589-8 8c0 2.273 1.02 4.483 2.733 5.995z"/></g><g><path fill="#fff" d="M39.808 19.529l-6.924-6.924a.667.667 0 0 0-.943.943l6.729 6.728v2.391h-2.391l-.276-.276v-1.724a.667.667 0 0 0-.667-.667h-.666v-.666a.667.667 0 0 0-.667-.667H32.28l-.277-.277v-1.723a.667.667 0 0 0-.667-.667h-1.724l-.064-.064a.667.667 0 0 0-.943.942l.26.26a.665.665 0 0 0 .471.196h1.334v1.332c0 .177.07.346.194.471l.667.668a.667.667 0 0 0 .472.195h1.333v.667c0 .368.3.667.667.667h.667v1.333c0 .177.07.347.195.471l.667.667a.665.665 0 0 0 .471.195h3.333a.667.667 0 0 0 .667-.666V20a.665.665 0 0 0-.195-.471z"/></g><g><path fill="#fff" d="M20.667 29.33c.368 0 .666.299.666.667v5.333a.667.667 0 0 1-.666.667h-4A.667.667 0 0 1 16 35.33v-5.333c0-.368.299-.667.667-.667zM20 30.663h-2.667v4H20z"/></g><g><path fill="#fff" d="M39.333 38.667a.667.667 0 0 1 0 1.333H.667a.667.667 0 0 1 0-1.333H4V31a.667.667 0 0 1 1.333 0v7.667H8V30c0-.368.299-.667.667-.667H14c.368 0 .667.299.667.667v8.667H24V31a.667.667 0 0 1 1.333 0v7.667h5.334v-2.734A3.34 3.34 0 0 1 28 32.667c0-.087.038-8.667 3.333-8.667 3.296 0 3.334 8.58 3.334 8.667A3.34 3.34 0 0 1 32 35.933v2.734zm-26-8h-4v8h4v-3.334h-.666a.667.667 0 0 1 0-1.333h.666zm18 4c1.103 0 2-.898 2-2 0-3.322-.892-7.334-2-7.334s-2 4.012-2 7.334c0 1.102.898 2 2 2z"/></g></g></svg>