<svg xmlns="http://www.w3.org/2000/svg" width="40" height="40" viewBox="0 0 40 40"><g><g><path fill="#fff" d="M9.808 13.138L21.337 1.61l11.528 11.528a.664.664 0 0 0 .471.195h2a.666.666 0 0 0 .667-.666V2a.666.666 0 0 0-.667-.666h-3.333V.667A.666.666 0 0 0 31.336 0H28.67a.666.666 0 0 0-.667.667v.667h-2a.666.666 0 1 0 0 1.333h2.667A.666.666 0 0 0 29.337 2v-.666h1.333V2c0 .368.298.667.667.667h3.333V12h-1.057L21.808.195a.666.666 0 0 0-.943 0L9.061 12H8.003V2.667h8.667a.667.667 0 0 0 0-1.333H7.337A.667.667 0 0 0 6.67 2v10.667c0 .368.299.667.667.667h2c.176 0 .346-.07.471-.196z"/></g><g><path fill="#fff" d="M18.67 7.997a2.67 2.67 0 0 1 2.667-2.667 2.67 2.67 0 0 1 2.666 2.667v3.333a.666.666 0 0 1-.666.667h-4a.667.667 0 0 1-.667-.667zm4 1.333h-2.667v1.333h2.667zm0-1.333c0-.736-.598-1.334-1.333-1.334-.736 0-1.334.598-1.334 1.334z"/></g><g><path fill="#fff" d="M6.667 32.667A3.339 3.339 0 0 1 4 35.933v3.4a.667.667 0 0 1-1.333 0v-3.4A3.339 3.339 0 0 1 0 32.667C0 32.58.038 24 3.333 24c3.296 0 3.334 8.58 3.334 8.667zm-1.334 0c0-3.322-.892-7.334-2-7.334s-2 4.012-2 7.334c0 1.102.898 2 2 2 1.103 0 2-.898 2-2z"/></g><g><path fill="#fff" d="M19.337 23.997a.667.667 0 0 1-.667-.667v-5.333c0-.368.299-.667.667-.667h4c.368 0 .666.299.666.667v5.333a.666.666 0 0 1-.666.667zm.666-4h2.667v-1.334h-2.667zm0 2.666h2.667V21.33h-2.667z"/></g><g><path fill="#fff" d="M32 27.337a.666.666 0 0 0-.667-.667H8.667a.667.667 0 0 0-.667.667v12a.667.667 0 0 0 1.333 0V28.003h22a.666.666 0 0 0 .667-.666z"/></g><g><path fill="#fff" d="M30.67 35.33a.666.666 0 0 1-.667.667H19.337a.667.667 0 0 1-.667-.667v-5.333c0-.368.299-.667.667-.667h10.666c.369 0 .667.299.667.667zm-6.667-4.667h-4v4h4zm5.334 0h-4v4h4z"/></g><g><path fill="#fff" d="M40 38.003c0 1.103-.898 2-2 2h-5.334c-1.102 0-2-.897-2-2a2.002 2.002 0 0 1 2.343-1.97 2.57 2.57 0 0 1 .324-.453V16.003h-24v8.667a.667.667 0 0 1-1.333 0v-9.333c0-.368.299-.667.667-.667H34c.369 0 .667.299.667.667v19.42a2.647 2.647 0 0 1 2.99 1.277A2.002 2.002 0 0 1 40 38.003zm-2 .667c.368 0 .666-.3.666-.667 0-.494-.594-.838-1.028-.558a.668.668 0 0 1-1.01-.41 1.324 1.324 0 0 0-1.295-1.032c-.622 0-1.153.425-1.294 1.032a.668.668 0 0 1-1.011.41.667.667 0 1 0-.361 1.225z"/></g><g><path fill="#fff" d="M28.67 38.663a.667.667 0 1 1 0 1.334H18.003a.667.667 0 0 1-.666-.667v-.667h-6a.667.667 0 0 1 0-1.333h.666v-7.333c0-.368.299-.667.667-.667h4c.368 0 .667.299.667.667v7.333h.666c.368 0 .667.299.667.667v.666zm-12.667-8h-2.666v6.667h2.666v-2.667h-.666a.667.667 0 0 1 0-1.333h.666z"/></g><g><path fill="#fff" d="M25.997 23.997a.666.666 0 0 1-.667-.667v-5.333c0-.368.298-.667.667-.667h4c.368 0 .666.299.666.667v5.333a.666.666 0 0 1-.666.667zm.666-4h2.667v-1.334h-2.667zm0 2.666h2.667V21.33h-2.667z"/></g><g><path fill="#fff" d="M12.667 23.997A.667.667 0 0 1 12 23.33v-5.333c0-.368.299-.667.667-.667h4c.368 0 .666.299.666.667v5.333a.667.667 0 0 1-.666.667zm.666-4H16v-1.334h-2.667zm0 2.666H16V21.33h-2.667z"/></g></g></svg>