<svg xmlns="http://www.w3.org/2000/svg" width="40" height="40" viewBox="0 0 40 40"><g><g><path fill="#fff" d="M18.534 13.995c-.041.621-.065 1.284-.065 2.005 0 3.34.986 5.333 2.638 5.333 2.083 0 2.639-2.514 2.639-4a.663.663 0 0 0-.66-.666.663.663 0 0 0-.66.666c0 .027-.056 2.667-1.319 2.667-.764 0-1.32-1.682-1.32-4 0-7.773 2.7-8.658 2.785-8.683a.667.667 0 0 0 .5-.781.658.658 0 0 0-.775-.523c-.132.027-.61.154-1.185.652 0-.115.01-.23.04-.344a1.32 1.32 0 0 1 1.616-.942c.34.092.625.313.8.621a1.342 1.342 0 0 1-.482 1.821.671.671 0 0 0-.241.912.658.658 0 0 0 .9.243 2.686 2.686 0 0 0 .966-3.643 2.627 2.627 0 0 0-1.602-1.242 2.595 2.595 0 0 0-2.002.266 2.648 2.648 0 0 0-1.23 1.62c-.17.644-.09 1.312.22 1.921-.565.93-1.094 2.317-1.388 4.378A6.761 6.761 0 0 1 17.149 8c0-3.676 2.96-6.667 6.597-6.667 3.637 0 6.596 2.991 6.596 6.667 0 3.676-2.959 6.667-6.596 6.667-.717 0-1.421-.116-2.093-.342a.659.659 0 0 0-.835.42c-.116.35.07.727.416.844a7.835 7.835 0 0 0 2.512.41c4.365 0 7.916-3.588 7.916-8C31.662 3.59 28.11 0 23.745 0S15.83 3.589 15.83 8c0 2.273 1.01 4.483 2.704 5.995z"/></g><g><path fill="#fff" d="M39.388 19.529l-6.851-6.924a.655.655 0 0 0-.933 0 .672.672 0 0 0 0 .943l6.658 6.728v2.391h-2.366l-.273-.276v-1.724a.663.663 0 0 0-.66-.667h-.66v-.666a.663.663 0 0 0-.659-.667H31.94l-.274-.277v-1.723a.663.663 0 0 0-.66-.667H29.3l-.064-.064a.655.655 0 0 0-.933 0 .672.672 0 0 0 0 .942l.257.26a.655.655 0 0 0 .467.196h1.319v1.332c0 .177.07.346.193.471l.66.668a.656.656 0 0 0 .466.195h1.32v.667c0 .368.295.667.66.667h.659v1.333c0 .177.07.347.193.471l.66.667a.655.655 0 0 0 .466.195h3.298c.364 0 .66-.298.66-.666V20a.669.669 0 0 0-.193-.471z"/></g><g><path fill="#fff" d="M4.62 10.67h10.224c.364 0 .66.299.66.667a.663.663 0 0 1-.66.666h-.33v4h1.98c.363 0 .659.299.659.667a.663.663 0 0 1-.66.667h-1.979v4h2.639c0-.368.295-.667.66-.667.363 0 .659.299.659.667.364 0 .66.298.66.666a.663.663 0 0 1-.66.667v4h.66c.364 0 .66.298.66.666a.663.663 0 0 1-.66.667h-.66v4h.66c.364 0 .66.299.66.667a.663.663 0 0 1-.66.666h-.66v3.334a.663.663 0 0 1-.66.666.663.663 0 0 1-.66-.666v-3.334h-2.638v3.334a.663.663 0 0 1-.66.666.663.663 0 0 1-.66-.666v-3.334h-2.638v3.334a.663.663 0 0 1-.66.666.663.663 0 0 1-.659-.666v-3.334H6.598v3.334a.663.663 0 0 1-.66.666.663.663 0 0 1-.659-.666v-3.334h-.66a.663.663 0 0 1-.659-.666c0-.368.296-.667.66-.667h.66v-4h-.66a.663.663 0 0 1-.66-.667c0-.368.296-.666.66-.666h.66v-4h-.66a.663.663 0 0 1-.66-.667c0-.368.296-.666.66-.666h.66v-4h-.66a.663.663 0 0 1-.66-.667c0-.368.296-.667.66-.667h.66v-4h-.66a.663.663 0 0 1-.66-.666c0-.368.296-.667.66-.667zm9.894 16h2.639v-4h-2.639zm0 5.333h2.639v-4h-2.639zm-3.958-16h2.639v-4h-2.639zm0 5.334h2.639v-4h-2.639zm0 5.333h2.639v-4h-2.639zm0 5.333h2.639v-4h-2.639zm-3.957-16h2.638v-4H6.6zm0 5.334h2.638v-4H6.6zm0 5.333h2.638v-4H6.6zm0 5.333h2.638v-4H6.6z"/></g><g><path fill="#fff" d="M13.858 9.333c.364 0 .66-.298.66-.666a.663.663 0 0 0-.66-.667H9.9a.663.663 0 0 0-.66.667c0 .368.296.666.66.666z"/></g><g><path fill="#fff" d="M38.92 38.663c.363 0 .659.299.659.667a.664.664 0 0 1-.66.667H.66A.663.663 0 0 1 0 39.33c0-.368.296-.667.66-.667h.66v-30c0-.368.295-.666.659-.666h4.618v-2c0-.368.295-.667.66-.667h6.596c.364 0 .66.299.66.667a.663.663 0 0 1-.66.666H7.916v2a.663.663 0 0 1-.66.667H2.64v29.333h18.47V23.33c0-.368.295-.667.66-.667.363 0 .659.299.659.667v15.333h5.277V35.93a3.33 3.33 0 0 1-2.638-3.266c0-.086.037-8.666 3.298-8.666 3.26 0 3.298 8.58 3.298 8.666a3.33 3.33 0 0 1-2.638 3.266v2.734zm-10.555-4a1.992 1.992 0 0 0 1.979-2c0-3.321-.883-7.333-1.98-7.333-1.095 0-1.978 4.012-1.978 7.333 0 1.103.888 2 1.979 2z"/></g></g></svg>