<svg xmlns="http://www.w3.org/2000/svg" width="40" height="40" viewBox="0 0 40 40"><g><g><path fill="#fff" d="M24.403 37.337h-8.576v2a.663.663 0 0 1-.66.666H11.21a.663.663 0 0 1-.66-.666c0-.368.295-.667.66-.667h3.298v-2c0-.368.295-.667.66-.667h1.978v-8.666c0-.368.295-.667.66-.667h3.958c.365 0 .66.299.66.667v8.666h1.979c.364 0 .66.299.66.667a.663.663 0 0 1-.66.667zm-3.299-9.334h-2.638v8h2.638V32.67h-.66a.663.663 0 0 1-.659-.667c0-.368.295-.666.66-.666h.66z"/></g><g><path fill="#fff" d="M27.71 27.337c0-.368.295-.667.66-.667h3.958c.364 0 .66.299.66.667v5.333a.663.663 0 0 1-.66.667H28.37a.663.663 0 0 1-.66-.667zm1.32.666v1.334h2.638v-1.334zm0 2.667v1.333h2.638V30.67z"/></g><g><path fill="#fff" d="M38.256 36.126a1.997 1.997 0 0 1 1.319 1.877c0 1.103-.888 2-1.979 2H32.32a1.992 1.992 0 0 1-1.979-2c0-1.102.888-2 1.979-2 .114 0 .228.01.339.03a2.615 2.615 0 0 1 4.278-.452V7.337c0-.368.295-.667.66-.667.365 0 .66.299.66.667zm-.66 2.544c.364 0 .66-.3.66-.667 0-.494-.588-.838-1.018-.558a.654.654 0 0 1-.605.058.667.667 0 0 1-.395-.468 1.313 1.313 0 0 0-1.28-1.032c-.616 0-1.142.425-1.28 1.032a.667.667 0 0 1-.396.468.654.654 0 0 1-.606-.058.649.649 0 0 0-.357-.108c-.364 0-.66.299-.66.666 0 .368.296.667.66.667z"/></g><g><path fill="#fff" d="M38.92 1.333c.364 0 .659.299.659.667v2.667a.663.663 0 0 1-.66.666H2.64v30.244a2.615 2.615 0 0 1 4.278.453c.112-.02.225-.03.34-.03 1.09 0 1.978.897 1.978 2s-.888 2-1.979 2H1.98A1.992 1.992 0 0 1 0 38c0-.868.553-1.6 1.32-1.877V4.667c0-.368.294-.667.659-.667h36.28V2.667h-5.936a.663.663 0 0 1-.66-.667.663.663 0 0 1-.66-.667h-.66V2a.663.663 0 0 1-.659.667h-2.639a.663.663 0 0 1-.66-.667v-.667h-1.318V2a.663.663 0 0 1-.66.667H9.896A.663.663 0 0 1 9.235 2v-.667h-1.32V2a.663.663 0 0 1-.659.667H.66A.663.663 0 0 1 0 2c0-.368.295-.667.66-.667h5.937V.667c0-.368.294-.667.66-.667h2.638c.364 0 .66.299.66.667v.666h13.193V.667c0-.368.295-.667.66-.667h2.638c.364 0 .66.299.66.667v.666h1.319V.667c0-.368.294-.667.66-.667h2.638c.365 0 .66.299.66.667.364 0 .66.298.66.666zM2.335 37.442a.649.649 0 0 0-.357-.109c-.364 0-.66.3-.66.667 0 .367.296.667.66.667h5.277c.364 0 .66-.3.66-.667 0-.495-.587-.838-1.017-.558a.654.654 0 0 1-.606.057.667.667 0 0 1-.395-.467A1.313 1.313 0 0 0 4.618 36c-.616 0-1.142.425-1.28 1.032a.667.667 0 0 1-.396.467.654.654 0 0 1-.606-.057z"/></g><g><path fill="#fff" d="M6.6 17.997c0-.368.295-.667.66-.667h3.958c.364 0 .66.299.66.667v5.333a.663.663 0 0 1-.66.667H7.26a.663.663 0 0 1-.66-.667zm1.32 2h2.638v-1.334H7.919zm0 2.666h2.638V21.33H7.919z"/></g><g><path fill="#fff" d="M17.81 14.667a.663.663 0 0 1-.66-.667V8.667c0-.368.295-.667.66-.667h3.958c.364 0 .66.299.66.667V14a.663.663 0 0 1-.66.667zm.66-5.334v1.334h2.638V9.333zm0 2.667v1.333h2.638V12z"/></g><g><path fill="#fff" d="M28.364 38.67H17.81a.663.663 0 0 0-.66.667c0 .368.295.666.66.666h10.554c.365 0 .66-.298.66-.666a.663.663 0 0 0-.66-.667z"/></g><g><path fill="#fff" d="M27.71 17.997c0-.368.295-.667.66-.667h3.958c.364 0 .66.299.66.667v5.333a.663.663 0 0 1-.66.667H28.37a.663.663 0 0 1-.66-.667zm1.32.666v1.334h2.638v-1.334zm0 2.667v1.333h2.638V21.33z"/></g><g><path fill="#fff" d="M7.26 14.667A.663.663 0 0 1 6.6 14V8.667c0-.368.295-.667.66-.667h3.958c.364 0 .66.299.66.667V14a.663.663 0 0 1-.66.667zm.66-4h2.638V9.333H7.919zm0 2.666h2.638V12H7.919z"/></g><g><path fill="#fff" d="M6.6 27.337c0-.368.295-.667.66-.667h3.958c.364 0 .66.299.66.667v5.333a.663.663 0 0 1-.66.667H7.26a.663.663 0 0 1-.66-.667zm1.32 2h2.638v-1.334H7.919zm0 2.666h2.638V30.67H7.919z"/></g><g><path fill="#fff" d="M28.37 14.667a.663.663 0 0 1-.66-.667V8.667c0-.368.295-.667.66-.667h3.958c.364 0 .66.299.66.667V14a.663.663 0 0 1-.66.667zm.66-5.334v1.334h2.638V9.333zm0 2.667v1.333h2.638V12z"/></g><g><path fill="#fff" d="M17.15 17.997c0-.368.295-.667.66-.667h3.958c.364 0 .66.299.66.667v5.333a.663.663 0 0 1-.66.667H17.81a.663.663 0 0 1-.66-.667zm1.32.666v1.334h2.638v-1.334zm0 2.667v1.333h2.638V21.33z"/></g></g></svg>