<svg xmlns="http://www.w3.org/2000/svg" width="60" height="60" viewBox="0 0 60 60"><defs><linearGradient id="16hza" x1="44.56" x2="44.56" y1="29.04" y2="59.91" gradientUnits="userSpaceOnUse"><stop offset="0" stop-color="#5889e9"/><stop offset="1" stop-color="#4cd4c9"/></linearGradient><linearGradient id="16hzb" x1="19.87" x2="19.87" y1=".09" y2="43.5" gradientUnits="userSpaceOnUse"><stop offset="0" stop-color="#5889e9"/><stop offset="1" stop-color="#4cd4c9"/></linearGradient></defs><g><g><path fill="url(#16hza)" d="M60.001 44.476c0 8.51-6.925 15.435-15.435 15.435-8.511 0-15.436-6.925-15.436-15.435 0-8.511 6.925-15.436 15.436-15.436C53.076 29.04 60 35.965 60 44.476zm-25.05 9.47l6.134-12.952 12.95-6.134a13.457 13.457 0 0 0-9.47-3.89c-7.447 0-13.506 6.058-13.506 13.506 0 3.687 1.489 7.03 3.892 9.47zm12.085-8.365l3.22-6.795-6.797 3.219zm-4.941-2.212l-3.22 6.795 6.797-3.219zm15.977 1.107c0-3.688-1.488-7.03-3.891-9.47l-6.135 12.95-12.95 6.135a13.459 13.459 0 0 0 9.47 3.89c7.447 0 13.506-6.058 13.506-13.505z"/></g><g><path fill="url(#16hzb)" d="M30.094 34.82h-1.93v-4.963l-1.93-.527v12.243h.965v1.93H0l1.594-8.947a6.693 6.693 0 0 1 2.452-4.266v-5.117a4.83 4.83 0 0 1 4.824-4.824h1.866a6.716 6.716 0 0 1-.477-1.02c-1.87-.265-3.319-1.86-3.319-3.803 0-1.422.782-2.653 1.93-3.323v-3.43C8.87 3.985 12.765.09 17.552.09h3.86c4.46 0 8.142 3.383 8.625 7.718h6.81a2.898 2.898 0 0 1 2.894 2.894 2.898 2.898 0 0 1-2.894 2.894h-5.36a3.82 3.82 0 0 1 .536 1.93c0 1.943-1.448 3.538-3.318 3.804-.13.353-.29.693-.477 1.02h1.866a4.83 4.83 0 0 1 4.823 4.823v1.93h-1.93v-1.93a2.898 2.898 0 0 0-2.893-2.894h-3.459l-3.01 3.01a2.877 2.877 0 0 1-2.048.848h-4.19a2.87 2.87 0 0 1-2.046-.848l-3.012-3.01H8.87a2.898 2.898 0 0 0-2.894 2.894v4.041c.173-.063.342-.135.521-.184l6.233-1.7v-1.192h1.929v1.832a4.932 4.932 0 0 0 4.824 3.956 4.932 4.932 0 0 0 4.823-3.955v-1.834h1.93v1.193l6.232 1.699a6.77 6.77 0 0 1 2.03.937l-1.088 1.593a4.812 4.812 0 0 0-1.45-.668l-1.865-.509zm0-25.083v1.93h6.753a.966.966 0 0 0 0-1.93zm-.965 7.25c0 .069-.008.136-.01.205.579-.333.975-.952.975-1.666 0-.711-.391-1.327-.965-1.662zm-19.285.205c-.002-.069-.01-.136-.01-.206v-3.122c-.574.335-.964.95-.964 1.662 0 .714.395 1.333.974 1.666zm17.355-.205v-3.39H11.764v3.39c0 1.288.502 2.499 1.412 3.411l3.527 3.527a.96.96 0 0 0 .683.283h4.19c.258 0 .5-.1.683-.283l3.528-3.527a4.796 4.796 0 0 0 1.412-3.41zm-4.823-5.32v-1.93h-5.788v1.93zM10.799 8.773v2.894h3.859v-1.93c0-1.064.865-1.93 1.93-1.93h5.788c1.064 0 1.93.866 1.93 1.93v1.93h3.858V8.773a6.761 6.761 0 0 0-6.753-6.754h-3.859A6.761 6.761 0 0 0 10.8 8.773zm-1.93 32.8v-11.19l-1.865.509a4.82 4.82 0 0 0-3.506 3.97l-1.194 6.711zm3.86-12.243l-1.93.527v11.716h1.93zm11.576 2.484c-1.255 1.265-2.96 2.041-4.823 2.041-1.865 0-3.572-.777-4.824-2.027v9.745h9.647z"/></g></g></svg>