<svg xmlns="http://www.w3.org/2000/svg" width="58" height="58" viewBox="0 0 58 58"><defs><linearGradient id="240oa" x1="29" x2="29" y1="9.31" y2="58.06" gradientUnits="userSpaceOnUse"><stop offset="0" stop-color="#5889e9"/><stop offset="1" stop-color="#4cd4c9"/></linearGradient><linearGradient id="240ob" x1="10.25" x2="10.25" y1="-.06" y2="29.94" gradientUnits="userSpaceOnUse"><stop offset="0" stop-color="#5889e9"/><stop offset="1" stop-color="#4cd4c9"/></linearGradient><linearGradient id="240oc" x1="4.63" x2="4.63" y1="15.88" y2="17.76" gradientUnits="userSpaceOnUse"><stop offset="0" stop-color="#5889e9"/><stop offset="1" stop-color="#4cd4c9"/></linearGradient><linearGradient id="240od" x1="8.38" x2="8.38" y1="15.88" y2="17.76" gradientUnits="userSpaceOnUse"><stop offset="0" stop-color="#5889e9"/><stop offset="1" stop-color="#4cd4c9"/></linearGradient><linearGradient id="240oe" x1="15.88" x2="15.88" y1="6.5" y2="8.38" gradientUnits="userSpaceOnUse"><stop offset="0" stop-color="#5889e9"/><stop offset="1" stop-color="#4cd4c9"/></linearGradient><linearGradient id="240of" x1="12.13" x2="12.13" y1="6.5" y2="8.38" gradientUnits="userSpaceOnUse"><stop offset="0" stop-color="#5889e9"/><stop offset="1" stop-color="#4cd4c9"/></linearGradient></defs><g><g><path fill="url(#240oa)" d="M57.967 56.703a.938.938 0 0 1-.839 1.357H.878a.94.94 0 0 1-.839-1.357l14.063-28.125a.939.939 0 0 1 .839-.518h13.024l-.118-.51a9.395 9.395 0 0 1-6.344-8.865c0-5.17 4.206-9.375 9.375-9.375 5.17 0 9.375 4.206 9.375 9.375a9.395 9.395 0 0 1-6.344 8.864l-.118.511h9.275c.355 0 .68.2.839.518zM27.403 52.16a.936.936 0 0 1 0-1.325l7.5-7.5a.933.933 0 0 1 .663-.275h13.483l-.938-1.875H34.08l-8.163 8.163a.935.935 0 0 1-1.326 0l-5.625-5.625a.936.936 0 0 1 0-1.326l5.35-5.35v-7.112h-1.874v5.625a.935.935 0 0 1-.275.663l-4.688 4.687a.935.935 0 0 1-1.326 0l-4.08-4.08-.991 1.982 7.335 7.335a.936.936 0 0 1 0 1.326l-8.712 8.712h2.974l7.225-7.225a.936.936 0 0 1 1.326 0l7.225 7.225h2.974zm-6.837-1.212l-5.237 5.237h10.474zm8.322-25.04a.937.937 0 0 1 .665.693l1.325 5.735 1.326-5.735a.939.939 0 0 1 .665-.693 7.514 7.514 0 0 0 5.51-7.223c0-4.135-3.365-7.5-7.5-7.5-4.136 0-7.5 3.365-7.5 7.5 0 3.36 2.265 6.33 5.509 7.223zm-.49 4.027h-2.207v7.5a.935.935 0 0 1-.275.663l-4.962 4.962 4.3 4.3 7.774-7.775a.933.933 0 0 1 .663-.275h13.483l-4.688-9.375h-9.128l-1.566 6.773a.938.938 0 0 1-1.828 0zm-15.442 5.127l3.86 3.86 3.75-3.75v-5.237H15.52zM2.396 56.185h4.657l9.375-9.375-6.23-6.23zm53.215 0l-.937-1.875H33.69v-1.875h2.268l3.48-6.09c.333-.585 1.295-.585 1.628 0l1.436 2.513 1.775-1.773a.934.934 0 0 1 1.443.142l3.471 5.208h4.544l-3.75-7.5H35.954l-6.563 6.563 4.688 4.687zM40.253 48.7l-2.135 3.735h4.27zm6.687 3.735l-2.145-3.216-1.327 1.327 1.079 1.889z"/></g><g><path fill="url(#240ob)" d="M7.44 13.065V11.19H.877a.939.939 0 0 1-.78-1.458L1.627 7.44.098 5.147a.938.938 0 0 1 .78-1.457H7.44V.877c0-.517.42-.937.938-.937h3.75c.518 0 .937.42.937.937V3.69h4.688c.313 0 .605.157.78.418l1.875 2.813c.21.315.21.724 0 1.04l-1.875 2.812a.939.939 0 0 1-.78.417h-4.688v1.875h6.563a.939.939 0 0 1 .78 1.458l-1.529 2.292 1.529 2.293a.938.938 0 0 1-.78 1.457h-6.563v8.437c0 .518-.42.938-.937.938h-3.75a.937.937 0 0 1-.938-.938v-8.437H2.753a.937.937 0 0 1-.78-.418L.098 17.334a.937.937 0 0 1 0-1.04l1.875-2.812a.939.939 0 0 1 .78-.417zm3.75 7.5H9.315v7.5h1.875zm5.783-3.23a.938.938 0 0 1 0-1.04l.903-1.355H3.254l-1.25 1.875 1.25 1.875h14.622zM9.314 3.69h1.875V1.815H9.315zM3.533 6.92c.21.315.21.725 0 1.04l-.904 1.355H17.25L18.5 7.44l-1.25-1.875H2.629zm5.782 6.145h1.875V11.19H9.315z"/></g><g><path fill="url(#240oc)" d="M3.69 15.88h1.875v1.875H3.69z"/></g><g><path fill="url(#240od)" d="M7.44 15.88h1.875v1.875H7.44z"/></g><g><path fill="url(#240oe)" d="M14.94 6.5h1.875v1.875H14.94z"/></g><g><path fill="url(#240of)" d="M11.19 6.5h1.875v1.875H11.19z"/></g></g></svg>