<svg xmlns="http://www.w3.org/2000/svg" width="60" height="60" viewBox="0 0 60 60"><defs><linearGradient id="l413a" x1="30" x2="30" y1="34.99" y2="60" gradientUnits="userSpaceOnUse"><stop offset="0" stop-color="#5889e9"/><stop offset="1" stop-color="#4cd4c9"/></linearGradient><linearGradient id="l413b" x1="30.5" x2="30.5" y1="3" y2="48" gradientUnits="userSpaceOnUse"><stop offset="0" stop-color="#5889e9"/><stop offset="1" stop-color="#4cd4c9"/></linearGradient><linearGradient id="l413c" x1="51" x2="51" y1="4.44" y2="13.55" gradientUnits="userSpaceOnUse"><stop offset="0" stop-color="#5889e9"/><stop offset="1" stop-color="#4cd4c9"/></linearGradient><linearGradient id="l413d" x1="43.89" x2="43.89" y1="8" y2="10" gradientUnits="userSpaceOnUse"><stop offset="0" stop-color="#5889e9"/><stop offset="1" stop-color="#4cd4c9"/></linearGradient><linearGradient id="l413e" x1="45.98" x2="45.98" y1="2.36" y2="5.59" gradientUnits="userSpaceOnUse"><stop offset="0" stop-color="#5889e9"/><stop offset="1" stop-color="#4cd4c9"/></linearGradient><linearGradient id="l413f" x1="51" x2="51" y1="0" y2="3.78" gradientUnits="userSpaceOnUse"><stop offset="0" stop-color="#5889e9"/><stop offset="1" stop-color="#4cd4c9"/></linearGradient><linearGradient id="l413g" x1="56.02" x2="56.02" y1="2.34" y2="5.61" gradientUnits="userSpaceOnUse"><stop offset="0" stop-color="#5889e9"/><stop offset="1" stop-color="#4cd4c9"/></linearGradient><linearGradient id="l413h" x1="58.11" x2="58.11" y1="8" y2="10" gradientUnits="userSpaceOnUse"><stop offset="0" stop-color="#5889e9"/><stop offset="1" stop-color="#4cd4c9"/></linearGradient><linearGradient id="l413i" x1="56.02" x2="56.02" y1="12.4" y2="15.65" gradientUnits="userSpaceOnUse"><stop offset="0" stop-color="#5889e9"/><stop offset="1" stop-color="#4cd4c9"/></linearGradient><linearGradient id="l413j" x1="51" x2="51" y1="14.22" y2="18" gradientUnits="userSpaceOnUse"><stop offset="0" stop-color="#5889e9"/><stop offset="1" stop-color="#4cd4c9"/></linearGradient><linearGradient id="l413k" x1="45.96" x2="45.96" y1="12.41" y2="15.67" gradientUnits="userSpaceOnUse"><stop offset="0" stop-color="#5889e9"/><stop offset="1" stop-color="#4cd4c9"/></linearGradient></defs><g><g><path fill="url(#l413a)" d="M59 49.002a1 1 0 0 1 0 2h-6.132l4.96 7.445a1 1 0 0 1-1.663 1.11l-5.7-8.555H23v8a1 1 0 0 1-2 0v-8H8.535l-5.703 8.555a1 1 0 0 1-1.664-1.11l4.964-7.445H1a1 1 0 0 1 0-2h3.5l5.609-7.477-4.816-4.816a1 1 0 1 1 1.414-1.414l13.707 13.707zm-41.414 0l-6.05-6.049L7 49.003z"/></g><g><path fill="url(#l413b)" d="M56 42a1 1 0 0 1 1 1v4a1 1 0 0 1-1 1H22a1 1 0 0 1-.708-.29l-12-12a1 1 0 0 1 0-1.413l3-3a1 1 0 0 1 1.414 0L21 38.59V20.4a3.661 3.661 0 0 1-4.223-.141 1.337 1.337 0 0 0-1.554 0 3.7 3.7 0 0 1-4.446 0 1.337 1.337 0 0 0-1.554 0 3.77 3.77 0 0 1-2.223.74 3.808 3.808 0 0 1-2.464-.93 1.472 1.472 0 0 1-.525-1.163C4.322 10.066 11.252 3 22 3c9.77 0 17.632 7.067 17.986 15.908.013.447-.18.875-.523 1.16a3.716 3.716 0 0 1-4.687.19 1.337 1.337 0 0 0-1.554 0 3.7 3.7 0 0 1-4.446 0 1.337 1.337 0 0 0-1.554 0A3.77 3.77 0 0 1 25 21a3.737 3.737 0 0 1-2-.6v20.186L24.413 42zM23.952 18.642a1.705 1.705 0 0 0 2.092 0 3.339 3.339 0 0 1 3.908 0 1.705 1.705 0 0 0 2.092 0 3.339 3.339 0 0 1 3.908 0A1.78 1.78 0 0 0 37 19c.348-.004.687-.111.974-.308C37.5 10.99 30.541 5 22 5 12.982 5 6.454 10.614 6.022 18.689c.288.199.628.307.977.31.378-.004.745-.13 1.046-.357a3.34 3.34 0 0 1 3.908 0 1.705 1.705 0 0 0 2.092 0 3.34 3.34 0 0 1 3.908 0A1.78 1.78 0 0 0 19 19c.378-.005.745-.13 1.046-.358a3.339 3.339 0 0 1 3.908 0zM55 44H24a1 1 0 0 1-.708-.294l-2-2L13 33.414 11.413 35l11 11H55z"/></g><g><path fill="url(#l413c)" d="M55.552 8.996a4.556 4.556 0 1 1-9.112 0 4.556 4.556 0 0 1 9.112 0zm-2 0a2.556 2.556 0 1 0-5.112 0 2.556 2.556 0 0 0 5.112 0z"/></g><g><path fill="url(#l413d)" d="M44.777 8H43a1 1 0 0 0 0 2h1.777a1 1 0 0 0 0-2z"/></g><g><path fill="url(#l413e)" d="M47.313 3.899L46.055 2.64a1 1 0 0 0-1.414 1.414l1.258 1.258a1 1 0 0 0 1.414-1.414z"/></g><g><path fill="url(#l413f)" d="M51 0a1 1 0 0 0-1 1v1.777a1 1 0 0 0 2 0V1a1 1 0 0 0-1-1z"/></g><g><path fill="url(#l413g)" d="M57.367 2.633a1 1 0 0 0-1.414 0L54.695 3.89a1 1 0 1 0 1.414 1.414l1.258-1.258a1 1 0 0 0 0-1.414z"/></g><g><path fill="url(#l413h)" d="M58.997 8H57.22a1 1 0 0 0 0 2h1.777a1 1 0 0 0 0-2z"/></g><g><path fill="url(#l413i)" d="M57.365 13.95l-1.258-1.257a1 1 0 0 0-1.414 1.414l1.258 1.258a1 1 0 0 0 1.414-1.414z"/></g><g><path fill="url(#l413j)" d="M51 14.22a1 1 0 0 0-1 1v1.777a1 1 0 0 0 2 0V15.22a1 1 0 0 0-1-1z"/></g><g><path fill="url(#l413k)" d="M47.283 12.69a1 1 0 0 0-1.39 0l-1.258 1.259a1 1 0 1 0 1.414 1.414l1.258-1.258a1 1 0 0 0-.024-1.414z"/></g></g></svg>