<svg xmlns="http://www.w3.org/2000/svg" width="60" height="60" viewBox="0 0 60 60"><defs><linearGradient id="o5uja" x1="30" x2="30" y1="34" y2="60" gradientUnits="userSpaceOnUse"><stop offset="0" stop-color="#4cd4c9"/><stop offset="1" stop-color="#5889e9"/></linearGradient><linearGradient id="o5ujb" x1="30" x2="30" y1="0" y2="35" gradientUnits="userSpaceOnUse"><stop offset="0" stop-color="#4cd4c9"/><stop offset="1" stop-color="#5889e9"/></linearGradient><linearGradient id="o5ujc" x1="30" x2="30" y1="16" y2="24" gradientUnits="userSpaceOnUse"><stop offset="0" stop-color="#4cd4c9"/><stop offset="1" stop-color="#5889e9"/></linearGradient><linearGradient id="o5ujd" x1="30" x2="30" y1="34" y2="44" gradientUnits="userSpaceOnUse"><stop offset="0" stop-color="#4cd4c9"/><stop offset="1" stop-color="#5889e9"/></linearGradient><linearGradient id="o5uje" x1="15" x2="15" y1="34" y2="48" gradientUnits="userSpaceOnUse"><stop offset="0" stop-color="#4cd4c9"/><stop offset="1" stop-color="#5889e9"/></linearGradient></defs><g><g><path fill="url(#o5uja)" d="M59 38h-4a1 1 0 0 0-1 1v19h-2V35a1 1 0 0 0-1-1h-6a1 1 0 0 0-1 1v23h-2V41a1 1 0 0 0-1-1h-6a1 1 0 0 0-1 1v17h-2V47a1 1 0 0 0-1-1h-6a1 1 0 0 0-1 1v11h-2v-5a1 1 0 0 0-1-1h-6a1 1 0 0 0-1 1v5H6V36a1 1 0 0 0-2 0v22H1a1 1 0 0 0 0 2h14a1 1 0 0 0 1-1v-5h4v5a1 1 0 0 0 1 1h4a1 1 0 0 0 1-1V48h4v11a1 1 0 0 0 1 1h4a1 1 0 0 0 1-1V42h4v17a1 1 0 0 0 1 1h4a1 1 0 0 0 1-1V36h4v23a1 1 0 0 0 1 1h4a1 1 0 0 0 1-1V40h3a1 1 0 0 0 0-2z"/></g><g><path fill="url(#o5ujb)" d="M59 8H40a1 1 0 0 0 0 2h18v21.586L30.707 4.293a1 1 0 0 0-.71-.293 1 1 0 0 0-.71.293L2 31.585V10h11a1 1 0 0 0 1-1V5a1 1 0 0 0-1-1h-1V2h6v2h-1a1 1 0 0 0-1 1v4a1 1 0 0 0 1 1h3a1 1 0 0 0 0-2h-2V6h1a1 1 0 0 0 1-1V1a1 1 0 0 0-1-1h-8a1 1 0 0 0-1 1v4a1 1 0 0 0 1 1h1v2H1a.998.998 0 0 0-1 1l.004 25a1 1 0 0 0 1.707.707L29.997 6.411l28.296 28.296A1 1 0 0 0 60 34V9a1 1 0 0 0-1-1z"/></g><g><path fill="url(#o5ujc)" d="M30 24c-2.206 0-4-1.794-4-4s1.794-4 4-4 4 1.794 4 4-1.794 4-4 4zm0-2c1.103 0 2-.897 2-2s-.897-2-2-2-2 .897-2 2 .897 2 2 2z"/></g><g><path fill="url(#o5ujd)" d="M24 35v8a1 1 0 0 0 2 0v-7h8v1a1 1 0 0 0 2 0v-2a1 1 0 0 0-1-1H25a1 1 0 0 0-1 1z"/></g><g><path fill="url(#o5uje)" d="M19 34a1 1 0 0 1 1 1v11h1a1 1 0 0 1 0 2H9a1 1 0 0 1 0-2h1V35a1 1 0 0 1 1-1zm-1 8h-6v4h6zm0-6h-6v4h6z"/></g></g></svg>